<svg viewBox="0 0 32 32" xmlns="http://www.w3.org/2000/svg" aria-hidden="true">
  <path fill="#fff" d="M19.11 17.67c-.28-.14-1.64-.81-1.9-.9-.26-.1-.45-.14-.64.14-.19.28-.74.9-.91 1.08-.17.19-.34.21-.62.07-.28-.14-1.18-.43-2.25-1.38-.83-.74-1.39-1.66-1.55-1.94-.16-.28-.02-.43.12-.57.12-.12.28-.31.42-.47.14-.16.19-.28.28-.47.09-.19.05-.35-.02-.5-.07-.14-.64-1.54-.88-2.1-.23-.55-.46-.48-.64-.49-.17-.01-.36-.01-.55-.01s-.5.07-.76.35c-.26.28-1 1-1 2.45s1.02 2.84 1.16 3.03c.14.19 2 3.05 4.84 4.28.68.29 1.21.46 1.63.59.68.22 1.3.19 1.79.11.55-.08 1.64-.67 1.87-1.32.23-.65.23-1.21.16-1.32-.06-.11-.23-.17-.51-.31z"/>
</svg>